<svg width="362" height="86" viewBox="0 0 362 86" fill="none" xmlns="http://www.w3.org/2000/svg">
<path d="M20.0548 40.235C20.0548 42.5817 19.1931 44.415 17.4698 45.735C15.7465 47.055 13.2531 47.715 9.98979 47.715C8.59645 47.715 7.31312 47.5867 6.13978 47.33C4.96645 47.11 3.95812 46.8167 3.11478 46.45C2.30812 46.0467 1.66645 45.6067 1.18979 45.13C0.749785 44.6167 0.529785 44.1034 0.529785 43.59C0.529785 43.15 0.639785 42.7284 0.859785 42.325C1.11645 41.9217 1.48312 41.5734 1.95979 41.28C2.94979 42.0134 4.10479 42.6734 5.42479 43.26C6.74479 43.81 8.24812 44.085 9.93479 44.085C13.7481 44.085 15.6548 42.8017 15.6548 40.235C15.6548 38.145 14.3898 36.7884 11.8598 36.165L7.29479 34.955C5.05812 34.3684 3.42645 33.525 2.39979 32.425C1.37312 31.2884 0.859785 29.84 0.859785 28.08C0.859785 27.1267 1.04312 26.21 1.40979 25.33C1.81312 24.45 2.41812 23.68 3.22479 23.02C4.03145 22.36 5.02145 21.8467 6.19479 21.48C7.40479 21.0767 8.81645 20.875 10.4298 20.875C12.9965 20.875 15.0681 21.26 16.6448 22.03C18.2215 22.7634 19.0098 23.625 19.0098 24.615C19.0098 25.0917 18.8815 25.5134 18.6248 25.88C18.4048 26.2467 18.0931 26.5217 17.6898 26.705C17.0298 26.265 16.0948 25.7884 14.8848 25.275C13.6748 24.7617 12.2448 24.505 10.5948 24.505C8.94479 24.505 7.62479 24.8167 6.63479 25.44C5.68145 26.0634 5.20479 26.9434 5.20479 28.08C5.20479 28.9234 5.47979 29.6384 6.02979 30.225C6.57979 30.8117 7.49645 31.2517 8.77979 31.545L12.5748 32.48C15.0681 33.1034 16.9381 34.0384 18.1848 35.285C19.4315 36.495 20.0548 38.145 20.0548 40.235Z" fill="white"/>
<path d="M50.5879 34.295C50.5879 36.3484 50.2946 38.2 49.708 39.85C49.1213 41.5 48.278 42.9117 47.178 44.085C46.1146 45.2584 44.813 46.1567 43.2729 46.78C41.7329 47.4034 40.0096 47.715 38.103 47.715C36.1963 47.715 34.4729 47.4034 32.9329 46.78C31.3929 46.1567 30.073 45.2584 28.9729 44.085C27.8729 42.9117 27.0296 41.5 26.4429 39.85C25.8563 38.2 25.5629 36.3484 25.5629 34.295C25.5629 32.2417 25.8563 30.39 26.4429 28.74C27.0663 27.09 27.9279 25.6784 29.0279 24.505C30.1279 23.3317 31.4479 22.4334 32.9879 21.81C34.528 21.1867 36.233 20.875 38.103 20.875C39.9729 20.875 41.6779 21.1867 43.2179 21.81C44.7579 22.4334 46.0596 23.3317 47.123 24.505C48.2229 25.6784 49.0663 27.09 49.653 28.74C50.2763 30.39 50.5879 32.2417 50.5879 34.295ZM38.103 24.505C35.6096 24.505 33.6479 25.3667 32.2179 27.09C30.7879 28.8134 30.073 31.215 30.073 34.295C30.073 37.4117 30.7696 39.8317 32.163 41.555C33.5929 43.2417 35.573 44.085 38.103 44.085C40.6329 44.085 42.5946 43.2234 43.9879 41.5C45.3813 39.7767 46.0779 37.375 46.0779 34.295C46.0779 31.215 45.3629 28.8134 43.9329 27.09C42.5396 25.3667 40.5963 24.505 38.103 24.505Z" fill="white"/>
<path d="M57.3933 21.7C57.5767 21.6267 57.8517 21.5534 58.2183 21.48C58.6217 21.37 59.0433 21.315 59.4833 21.315C61.0233 21.315 61.7933 21.9934 61.7933 23.35V37.485C61.7933 39.8684 62.4167 41.5734 63.6633 42.6C64.91 43.59 66.6333 44.085 68.8333 44.085C70.3 44.085 71.5467 43.9384 72.5733 43.645C73.6 43.315 74.4067 42.985 74.9933 42.655V21.7C75.1767 21.6267 75.4517 21.5534 75.8183 21.48C76.2217 21.37 76.625 21.315 77.0283 21.315C78.605 21.315 79.3933 21.9934 79.3933 23.35V42.49C79.3933 43.26 79.2833 43.8834 79.0633 44.36C78.88 44.8 78.4033 45.24 77.6333 45.68C76.79 46.1567 75.6167 46.615 74.1133 47.055C72.6467 47.495 70.8683 47.715 68.7783 47.715C65.1117 47.715 62.2883 46.9084 60.3083 45.295C58.365 43.6817 57.3933 41.1517 57.3933 37.705V21.7Z" fill="white"/>
<path d="M114.033 33.635C114.033 35.835 113.684 37.815 112.988 39.575C112.328 41.335 111.356 42.8384 110.073 44.085C108.826 45.295 107.323 46.23 105.563 46.89C103.803 47.55 101.823 47.88 99.6226 47.88C97.4226 47.88 95.4426 47.5684 93.6826 46.945C91.9226 46.285 90.4009 45.35 89.1176 44.14C87.8709 42.8934 86.8993 41.39 86.2026 39.63C85.5426 37.87 85.2126 35.8717 85.2126 33.635C85.2126 31.4717 85.5609 29.51 86.2576 27.75C86.9543 25.99 87.9259 24.505 89.1726 23.295C90.4559 22.0484 91.9776 21.095 93.7376 20.435C95.4976 19.775 97.4593 19.445 99.6226 19.445C101.786 19.445 103.748 19.7934 105.508 20.49C107.268 21.15 108.771 22.1034 110.018 23.35C111.301 24.56 112.291 26.045 112.988 27.805C113.684 29.565 114.033 31.5084 114.033 33.635ZM99.6226 26.76C98.0826 26.76 96.8909 27.365 96.0476 28.575C95.2043 29.7484 94.7826 31.435 94.7826 33.635C94.7826 35.945 95.2043 37.6867 96.0476 38.86C96.8909 39.9967 98.0826 40.565 99.6226 40.565C101.163 40.565 102.354 39.9784 103.198 38.805C104.041 37.6317 104.463 35.9084 104.463 33.635C104.463 31.435 104.041 29.7484 103.198 28.575C102.354 27.365 101.163 26.76 99.6226 26.76Z" fill="white"/>
<path d="M131.574 19.445C133.151 19.445 134.507 19.6467 135.644 20.05V11.14C136.048 11.03 136.616 10.92 137.349 10.81C138.119 10.7 138.944 10.645 139.824 10.645C141.657 10.645 142.977 10.9567 143.784 11.58C144.591 12.1667 144.994 13.3217 144.994 15.045V41.115C144.994 42.8384 144.187 44.2134 142.574 45.24C141.511 45.9367 140.136 46.5417 138.449 47.055C136.799 47.605 134.874 47.88 132.674 47.88C127.871 47.88 124.131 46.7067 121.454 44.36C118.777 41.9767 117.439 38.4384 117.439 33.745C117.439 31.325 117.806 29.2167 118.539 27.42C119.272 25.6234 120.262 24.1384 121.509 22.965C122.792 21.7917 124.296 20.9117 126.019 20.325C127.742 19.7384 129.594 19.445 131.574 19.445ZM135.699 27.365C135.296 27.1817 134.856 27.035 134.379 26.925C133.902 26.815 133.408 26.76 132.894 26.76C130.988 26.76 129.503 27.3467 128.439 28.52C127.412 29.6567 126.899 31.3984 126.899 33.745C126.899 36.055 127.394 37.76 128.384 38.86C129.374 39.96 130.786 40.51 132.619 40.51C133.279 40.51 133.884 40.4367 134.434 40.29C134.984 40.1434 135.406 39.9784 135.699 39.795V27.365Z" fill="white"/>
<path d="M178.486 33.635C178.486 35.835 178.137 37.815 177.441 39.575C176.781 41.335 175.809 42.8384 174.526 44.085C173.279 45.295 171.776 46.23 170.016 46.89C168.256 47.55 166.276 47.88 164.076 47.88C161.876 47.88 159.896 47.5684 158.136 46.945C156.376 46.285 154.854 45.35 153.571 44.14C152.324 42.8934 151.352 41.39 150.656 39.63C149.996 37.87 149.666 35.8717 149.666 33.635C149.666 31.4717 150.014 29.51 150.711 27.75C151.407 25.99 152.379 24.505 153.626 23.295C154.909 22.0484 156.431 21.095 158.191 20.435C159.951 19.775 161.912 19.445 164.076 19.445C166.239 19.445 168.201 19.7934 169.961 20.49C171.721 21.15 173.224 22.1034 174.471 23.35C175.754 24.56 176.744 26.045 177.441 27.805C178.137 29.565 178.486 31.5084 178.486 33.635ZM164.076 26.76C162.536 26.76 161.344 27.365 160.501 28.575C159.657 29.7484 159.236 31.435 159.236 33.635C159.236 35.945 159.657 37.6867 160.501 38.86C161.344 39.9967 162.536 40.565 164.076 40.565C165.616 40.565 166.807 39.9784 167.651 38.805C168.494 37.6317 168.916 35.9084 168.916 33.635C168.916 31.435 168.494 29.7484 167.651 28.575C166.807 27.365 165.616 26.76 164.076 26.76Z" fill="white"/>
<path d="M209.337 46.945C208.934 47.055 208.347 47.165 207.577 47.275C206.844 47.385 206.037 47.44 205.157 47.44C203.324 47.44 202.004 47.1467 201.197 46.56C200.391 45.9367 199.987 44.7634 199.987 43.04V30.06C199.987 28.9234 199.639 28.0984 198.942 27.585C198.282 27.035 197.402 26.76 196.302 26.76C195.569 26.76 194.872 26.8517 194.212 27.035C193.589 27.2184 192.984 27.4567 192.397 27.75V46.945C191.994 47.055 191.407 47.165 190.637 47.275C189.904 47.385 189.097 47.44 188.217 47.44C186.384 47.44 185.064 47.1467 184.257 46.56C183.451 45.9367 183.047 44.7634 183.047 43.04V26.485C183.047 25.495 183.249 24.6884 183.652 24.065C184.092 23.4417 184.679 22.8734 185.412 22.36C186.659 21.48 188.217 20.7834 190.087 20.27C191.994 19.72 194.102 19.445 196.412 19.445C200.556 19.445 203.746 20.3617 205.982 22.195C208.219 23.9917 209.337 26.5217 209.337 29.785V46.945Z" fill="white"/>
<path d="M225.288 47.825C222.061 47.825 219.568 47.0917 217.808 45.625C216.084 44.1584 215.223 41.775 215.223 38.475V14.055C215.626 13.945 216.194 13.835 216.928 13.725C217.698 13.5784 218.504 13.505 219.348 13.505C221.144 13.505 222.446 13.8167 223.253 14.44C224.059 15.0634 224.463 16.2184 224.463 17.905V20.875H231.668C231.888 21.2784 232.089 21.7917 232.273 22.415C232.493 23.0017 232.603 23.6617 232.603 24.395C232.603 25.6784 232.309 26.6134 231.723 27.2C231.173 27.75 230.421 28.025 229.468 28.025H224.463V37.815C224.463 38.7684 224.756 39.4467 225.343 39.85C225.966 40.2534 226.828 40.455 227.928 40.455C228.478 40.455 229.046 40.4184 229.633 40.345C230.219 40.235 230.733 40.1067 231.173 39.96C231.503 40.3634 231.778 40.8217 231.998 41.335C232.254 41.8117 232.383 42.3984 232.383 43.095C232.383 44.4884 231.851 45.625 230.788 46.505C229.761 47.385 227.928 47.825 225.288 47.825Z" fill="white"/>
<path d="M264.423 33.635C264.423 35.835 264.075 37.815 263.378 39.575C262.718 41.335 261.747 42.8384 260.463 44.085C259.217 45.295 257.713 46.23 255.953 46.89C254.193 47.55 252.213 47.88 250.013 47.88C247.813 47.88 245.833 47.5684 244.073 46.945C242.313 46.285 240.792 45.35 239.508 44.14C238.262 42.8934 237.29 41.39 236.593 39.63C235.933 37.87 235.603 35.8717 235.603 33.635C235.603 31.4717 235.952 29.51 236.648 27.75C237.345 25.99 238.317 24.505 239.563 23.295C240.847 22.0484 242.368 21.095 244.128 20.435C245.888 19.775 247.85 19.445 250.013 19.445C252.177 19.445 254.138 19.7934 255.898 20.49C257.658 21.15 259.162 22.1034 260.408 23.35C261.692 24.56 262.682 26.045 263.378 27.805C264.075 29.565 264.423 31.5084 264.423 33.635ZM250.013 26.76C248.473 26.76 247.282 27.365 246.438 28.575C245.595 29.7484 245.173 31.435 245.173 33.635C245.173 35.945 245.595 37.6867 246.438 38.86C247.282 39.9967 248.473 40.565 250.013 40.565C251.553 40.565 252.745 39.9784 253.588 38.805C254.432 37.6317 254.853 35.9084 254.853 33.635C254.853 31.435 254.432 29.7484 253.588 28.575C252.745 27.365 251.553 26.76 250.013 26.76Z" fill="white"/>
<path d="M105.672 68.23C105.672 67.1095 105.352 66.2863 104.712 65.7604C104.071 65.2345 103.214 64.9715 102.139 64.9715C100.653 64.9715 99.3266 65.4974 98.1604 66.5493C98.2976 67.0066 98.3662 67.4983 98.3662 68.0242V78.9316C98.2518 78.9773 98.0689 79.0231 97.8174 79.0688C97.5887 79.1374 97.3486 79.1717 97.0971 79.1717C96.1138 79.1717 95.6222 78.7601 95.6222 77.9369V68.23C95.6222 67.1095 95.302 66.2863 94.6618 65.7604C94.0215 65.2345 93.1526 64.9715 92.055 64.9715C91.3232 64.9715 90.6258 65.0858 89.9627 65.3145C89.3224 65.5432 88.7736 65.8061 88.3163 66.1034V78.9316C88.2019 78.9773 88.0304 79.0231 87.8018 79.0688C87.5731 79.1374 87.3216 79.1717 87.0472 79.1717C86.0639 79.1717 85.5723 78.7601 85.5723 77.9369V66.2406C85.5723 65.7833 85.6637 65.406 85.8467 65.1087C86.0525 64.7886 86.3955 64.4684 86.8757 64.1483C87.4931 63.7596 88.2705 63.428 89.2081 63.1536C90.1685 62.8563 91.1289 62.7077 92.0893 62.7077C93.2097 62.7077 94.2044 62.8792 95.0734 63.2222C95.9423 63.5423 96.6054 63.9882 97.0628 64.5599C97.6573 64.034 98.4005 63.5995 99.2923 63.2565C100.184 62.8906 101.202 62.7077 102.345 62.7077C104.197 62.7077 105.672 63.1536 106.77 64.0454C107.867 64.9143 108.416 66.2635 108.416 68.0928V78.9316C108.302 78.9773 108.119 79.0231 107.867 79.0688C107.639 79.1374 107.399 79.1717 107.147 79.1717C106.164 79.1717 105.672 78.7601 105.672 77.9369V68.23Z" fill="white"/>
<path d="M119.234 77.2166C120.195 77.2166 120.984 77.1251 121.601 76.9422C122.241 76.7364 122.699 76.542 122.973 76.3591V71.3856L118.72 71.8315C117.531 71.9458 116.651 72.2202 116.079 72.6547C115.507 73.0663 115.221 73.6837 115.221 74.5069C115.221 75.3758 115.553 76.0504 116.216 76.5306C116.879 76.9879 117.885 77.2166 119.234 77.2166ZM119.2 62.7077C121.19 62.7077 122.767 63.1536 123.934 64.0454C125.1 64.9372 125.683 66.3435 125.683 68.2643V76.3934C125.683 76.8965 125.58 77.2852 125.374 77.5596C125.191 77.8111 124.905 78.0512 124.517 78.2799C123.968 78.6 123.236 78.8744 122.321 79.1031C121.43 79.3546 120.401 79.4804 119.234 79.4804C117.085 79.4804 115.416 79.0574 114.227 78.2113C113.06 77.3652 112.477 76.1419 112.477 74.5412C112.477 73.032 112.969 71.9001 113.952 71.1455C114.936 70.368 116.319 69.8878 118.103 69.7049L122.973 69.2247V68.2643C122.973 67.121 122.63 66.2863 121.944 65.7604C121.258 65.2345 120.332 64.9715 119.166 64.9715C118.205 64.9715 117.302 65.1087 116.456 65.3831C115.61 65.6575 114.856 65.9662 114.192 66.3092C114.009 66.1491 113.838 65.9662 113.678 65.7604C113.541 65.5546 113.472 65.3259 113.472 65.0744C113.472 64.7543 113.552 64.4913 113.712 64.2855C113.872 64.0797 114.124 63.8853 114.467 63.7024C115.084 63.3823 115.793 63.1422 116.593 62.9821C117.394 62.7992 118.263 62.7077 119.2 62.7077Z" fill="white"/>
<path d="M133.436 78.9316C133.321 78.9773 133.15 79.0231 132.921 79.0688C132.692 79.1374 132.441 79.1717 132.166 79.1717C131.183 79.1717 130.692 78.7601 130.692 77.9369V66.3092C130.692 65.7833 130.783 65.3717 130.966 65.0744C131.172 64.7543 131.503 64.4456 131.961 64.1483C132.555 63.7596 133.355 63.428 134.362 63.1536C135.391 62.8563 136.545 62.7077 137.826 62.7077C139.655 62.7077 140.57 63.165 140.57 64.0797C140.57 64.3084 140.536 64.5256 140.467 64.7314C140.398 64.9143 140.307 65.0744 140.193 65.2116C139.964 65.1659 139.667 65.1201 139.301 65.0744C138.935 65.0287 138.569 65.0058 138.203 65.0058C137.151 65.0058 136.225 65.1201 135.425 65.3488C134.625 65.5546 133.961 65.8061 133.436 66.1034V78.9316Z" fill="white"/>
<path d="M146.601 78.9316C146.487 78.9773 146.315 79.0231 146.087 79.0688C145.858 79.1374 145.606 79.1717 145.332 79.1717C144.349 79.1717 143.857 78.7601 143.857 77.9369V56.7738C143.971 56.7281 144.143 56.6823 144.372 56.6366C144.623 56.568 144.886 56.5337 145.16 56.5337C146.121 56.5337 146.601 56.9453 146.601 57.7685V70.1165L154.113 62.8449C154.662 62.8678 155.085 63.005 155.382 63.2565C155.702 63.4852 155.862 63.7939 155.862 64.1826C155.862 64.5027 155.759 64.7886 155.553 65.0401C155.348 65.2688 155.073 65.5432 154.73 65.8633L149.208 70.6996L156.857 77.5596C156.811 78.0627 156.651 78.4628 156.377 78.7601C156.125 79.0574 155.782 79.206 155.348 79.206C155.005 79.206 154.684 79.126 154.387 78.9659C154.113 78.783 153.827 78.5314 153.53 78.2113L146.601 71.2484V78.9316Z" fill="white"/>
<path d="M162.123 72.689C162.741 75.6845 164.707 77.1823 168.023 77.1823C168.983 77.1823 169.852 77.0222 170.63 76.7021C171.407 76.382 172.024 76.039 172.482 75.6731C173.031 75.9932 173.305 76.4277 173.305 76.9765C173.305 77.2966 173.156 77.6053 172.859 77.9026C172.585 78.1999 172.196 78.4628 171.693 78.6915C171.213 78.9202 170.641 79.1031 169.978 79.2403C169.338 79.3775 168.64 79.4461 167.886 79.4461C165.233 79.4461 163.129 78.7258 161.574 77.2852C160.042 75.8446 159.276 73.7409 159.276 70.974C159.276 69.6706 159.459 68.5158 159.825 67.5097C160.214 66.4807 160.74 65.6118 161.403 64.9029C162.089 64.194 162.901 63.6567 163.838 63.2908C164.776 62.9021 165.793 62.7077 166.891 62.7077C167.92 62.7077 168.869 62.8792 169.738 63.2222C170.607 63.5652 171.35 64.0568 171.967 64.6971C172.608 65.3145 173.099 66.0577 173.442 66.9266C173.808 67.7727 173.991 68.7102 173.991 69.7392C173.991 70.2423 173.877 70.6081 173.648 70.8368C173.419 71.0426 173.099 71.1684 172.688 71.2141L162.123 72.689ZM166.857 64.9372C165.462 64.9372 164.307 65.4288 163.392 66.4121C162.478 67.3725 161.997 68.7559 161.952 70.5624L171.384 69.259C171.27 68.0013 170.824 66.9723 170.046 66.172C169.292 65.3488 168.229 64.9372 166.857 64.9372Z" fill="white"/>
<path d="M183.374 79.4461C181.773 79.4461 180.47 79.0917 179.464 78.3828C178.48 77.6739 177.989 76.4963 177.989 74.8499V58.5574C178.103 58.5117 178.275 58.4659 178.503 58.4202C178.755 58.3516 179.018 58.3173 179.292 58.3173C180.253 58.3173 180.733 58.7289 180.733 59.5521V63.4966H186.358C186.427 63.6109 186.495 63.771 186.564 63.9768C186.632 64.1597 186.667 64.3655 186.667 64.5942C186.667 65.3717 186.324 65.7604 185.638 65.7604H180.733V74.6784C180.733 75.5931 180.984 76.2448 181.487 76.6335C182.013 76.9994 182.745 77.1823 183.683 77.1823C184.071 77.1823 184.506 77.1137 184.986 76.9765C185.466 76.8393 185.866 76.6792 186.186 76.4963C186.324 76.6335 186.449 76.805 186.564 77.0108C186.678 77.2166 186.735 77.4567 186.735 77.7311C186.735 78.2342 186.438 78.6458 185.843 78.9659C185.249 79.286 184.426 79.4461 183.374 79.4461Z" fill="white"/>
<path d="M197.474 79.4461C196.673 79.4461 195.919 79.3546 195.21 79.1717C194.501 78.9888 193.918 78.7715 193.461 78.52V85.1742C193.346 85.2199 193.175 85.2657 192.946 85.3114C192.717 85.38 192.466 85.4143 192.191 85.4143C191.208 85.4143 190.716 84.9913 190.716 84.1452V66.0348C190.716 65.5775 190.797 65.2116 190.957 64.9372C191.117 64.6628 191.448 64.377 191.951 64.0797C192.569 63.7367 193.3 63.428 194.146 63.1536C195.015 62.8563 195.999 62.7077 197.096 62.7077C198.217 62.7077 199.269 62.8678 200.252 63.1879C201.258 63.508 202.116 64.0111 202.824 64.6971C203.556 65.3602 204.128 66.2177 204.539 67.2696C204.974 68.3215 205.191 69.5791 205.191 71.0426C205.191 72.4603 204.997 73.6951 204.608 74.747C204.242 75.7989 203.716 76.6792 203.03 77.3881C202.344 78.0741 201.521 78.5886 200.561 78.9316C199.623 79.2746 198.594 79.4461 197.474 79.4461ZM197.096 77.1823C198.697 77.1823 199.977 76.7021 200.938 75.7417C201.921 74.7584 202.413 73.1921 202.413 71.0426C202.413 69.9221 202.264 68.9732 201.967 68.1957C201.693 67.4182 201.304 66.7894 200.801 66.3092C200.32 65.829 199.76 65.486 199.12 65.2802C198.48 65.0744 197.805 64.9715 197.096 64.9715C196.273 64.9715 195.576 65.0744 195.004 65.2802C194.432 65.486 193.918 65.7147 193.461 65.9662V76.0847C193.895 76.4048 194.409 76.6678 195.004 76.8736C195.599 77.0794 196.296 77.1823 197.096 77.1823Z" fill="white"/>
<path d="M212.459 78.9316C212.345 78.9773 212.173 79.0231 211.945 79.0688C211.716 79.1374 211.465 79.1717 211.19 79.1717C210.207 79.1717 209.715 78.7601 209.715 77.9369V56.7738C209.83 56.7281 210.001 56.6823 210.23 56.6366C210.481 56.568 210.733 56.5337 210.984 56.5337C211.968 56.5337 212.459 56.9453 212.459 57.7685V78.9316Z" fill="white"/>
<path d="M223.541 77.2166C224.502 77.2166 225.291 77.1251 225.908 76.9422C226.548 76.7364 227.006 76.542 227.28 76.3591V71.3856L223.027 71.8315C221.838 71.9458 220.957 72.2202 220.386 72.6547C219.814 73.0663 219.528 73.6837 219.528 74.5069C219.528 75.3758 219.86 76.0504 220.523 76.5306C221.186 76.9879 222.192 77.2166 223.541 77.2166ZM223.507 62.7077C225.496 62.7077 227.074 63.1536 228.24 64.0454C229.407 64.9372 229.99 66.3435 229.99 68.2643V76.3934C229.99 76.8965 229.887 77.2852 229.681 77.5596C229.498 77.8111 229.212 78.0512 228.824 78.2799C228.275 78.6 227.543 78.8744 226.628 79.1031C225.737 79.3546 224.708 79.4804 223.541 79.4804C221.392 79.4804 219.723 79.0574 218.534 78.2113C217.367 77.3652 216.784 76.1419 216.784 74.5412C216.784 73.032 217.276 71.9001 218.259 71.1455C219.242 70.368 220.626 69.8878 222.409 69.7049L227.28 69.2247V68.2643C227.28 67.121 226.937 66.2863 226.251 65.7604C225.565 65.2345 224.639 64.9715 223.473 64.9715C222.512 64.9715 221.609 65.1087 220.763 65.3831C219.917 65.6575 219.162 65.9662 218.499 66.3092C218.316 66.1491 218.145 65.9662 217.985 65.7604C217.848 65.5546 217.779 65.3259 217.779 65.0744C217.779 64.7543 217.859 64.4913 218.019 64.2855C218.179 64.0797 218.431 63.8853 218.774 63.7024C219.391 63.3823 220.1 63.1422 220.9 62.9821C221.701 62.7992 222.57 62.7077 223.507 62.7077Z" fill="white"/>
<path d="M242.339 65.0058C241.561 65.0058 240.841 65.143 240.178 65.4174C239.515 65.6689 238.943 66.0577 238.463 66.5836C237.982 67.0867 237.605 67.7269 237.331 68.5044C237.056 69.259 236.919 70.1279 236.919 71.1112C236.919 73.0777 237.411 74.5869 238.394 75.6388C239.377 76.6678 240.692 77.1823 242.339 77.1823C243.299 77.1823 244.099 77.0565 244.74 76.805C245.38 76.5306 245.951 76.2219 246.455 75.8789C246.706 76.0161 246.912 76.1876 247.072 76.3934C247.232 76.5992 247.312 76.8507 247.312 77.148C247.312 77.4681 247.186 77.7654 246.935 78.0398C246.683 78.3142 246.329 78.5543 245.871 78.7601C245.437 78.9659 244.911 79.126 244.294 79.2403C243.699 79.3775 243.047 79.4461 242.339 79.4461C241.149 79.4461 240.052 79.2746 239.046 78.9316C238.04 78.5886 237.171 78.0741 236.439 77.3881C235.707 76.7021 235.136 75.8446 234.724 74.8156C234.312 73.7637 234.107 72.5289 234.107 71.1112C234.107 69.7163 234.324 68.5044 234.758 67.4754C235.193 66.4235 235.776 65.5432 236.508 64.8343C237.239 64.1254 238.097 63.5995 239.08 63.2565C240.086 62.8906 241.149 62.7077 242.27 62.7077C242.979 62.7077 243.631 62.7763 244.225 62.9135C244.842 63.0278 245.368 63.1993 245.803 63.428C246.237 63.6567 246.569 63.9196 246.798 64.2169C247.049 64.4913 247.175 64.7771 247.175 65.0744C247.175 65.3488 247.095 65.5889 246.935 65.7947C246.775 66.0005 246.569 66.1606 246.317 66.2749C245.814 65.9319 245.265 65.6346 244.671 65.3831C244.076 65.1316 243.299 65.0058 242.339 65.0058Z" fill="white"/>
<path d="M252.931 72.689C253.548 75.6845 255.515 77.1823 258.831 77.1823C259.791 77.1823 260.66 77.0222 261.437 76.7021C262.215 76.382 262.832 76.039 263.29 75.6731C263.838 75.9932 264.113 76.4277 264.113 76.9765C264.113 77.2966 263.964 77.6053 263.667 77.9026C263.393 78.1999 263.004 78.4628 262.501 78.6915C262.021 78.9202 261.449 79.1031 260.786 79.2403C260.145 79.3775 259.448 79.4461 258.693 79.4461C256.041 79.4461 253.937 78.7258 252.382 77.2852C250.85 75.8446 250.084 73.7409 250.084 70.974C250.084 69.6706 250.267 68.5158 250.633 67.5097C251.022 66.4807 251.548 65.6118 252.211 64.9029C252.897 64.194 253.709 63.6567 254.646 63.2908C255.584 62.9021 256.601 62.7077 257.699 62.7077C258.728 62.7077 259.677 62.8792 260.546 63.2222C261.415 63.5652 262.158 64.0568 262.775 64.6971C263.415 65.3145 263.907 66.0577 264.25 66.9266C264.616 67.7727 264.799 68.7102 264.799 69.7392C264.799 70.2423 264.685 70.6081 264.456 70.8368C264.227 71.0426 263.907 71.1684 263.495 71.2141L252.931 72.689ZM257.664 64.9372C256.27 64.9372 255.115 65.4288 254.2 66.4121C253.285 67.3725 252.805 68.7559 252.76 70.5624L262.192 69.259C262.078 68.0013 261.632 66.9723 260.854 66.172C260.1 65.3488 259.036 64.9372 257.664 64.9372Z" fill="white"/>
<rect x="279.5" y="21.5" width="80" height="56" rx="12.5" stroke="white" stroke-width="5"/>
<rect x="300.5" y="2.5" width="38" height="58" rx="14.5" stroke="white" stroke-width="5"/>
<rect x="297" y="35" width="47" height="32" fill="#8B61F2"/>
<path d="M303.052 43C301.619 57.4029 330.27 65.2901 336 48.6583C329.952 52.9448 313.398 55.6882 303.052 43Z" fill="white"/>
</svg>
